<?xml version="1.0" encoding="UTF-8"?>
<svg id="Layer_1" xmlns="http://www.w3.org/2000/svg" version="1.1" viewBox="0 0 190.67 230.25">
  <!-- Generator: Adobe Illustrator 29.1.0, SVG Export Plug-In . SVG Version: 2.1.0 Build 142)  -->
  <defs>
    <style>
      .st0 {
        fill: #fa0;
      }
    </style>
  </defs>
  <path class="st0" d="M186.98,164.15v-44.21c2.11-.53,3.68-2.48,3.68-4.81s-1.57-4.28-3.68-4.81v-44.21c2.11-.53,3.68-2.48,3.68-4.81,0-2.74-2.16-4.97-4.82-4.97-1.38,0-2.62.61-3.5,1.56l-35.03-20.84c.31-.83.5-1.73.5-2.68,0-4.11-3.24-7.45-7.23-7.45-1.27,0-2.45.37-3.49.96L102.55,7.33c-.06-4.06-3.26-7.33-7.22-7.33s-7.16,3.27-7.22,7.33l-34.55,20.55c-1.04-.6-2.22-.96-3.49-.96-3.95,0-7.16,3.27-7.22,7.33l-.19.12.19.12c.01.9.19,1.76.49,2.56L8.32,57.88c-.88-.96-2.12-1.56-3.5-1.56-2.66,0-4.82,2.22-4.82,4.97,0,2.34,1.57,4.28,3.68,4.81v44.21c-2.11.53-3.68,2.48-3.68,4.81s1.57,4.28,3.68,4.81v44.21c-2.11.53-3.68,2.48-3.68,4.81,0,2.74,2.16,4.97,4.82,4.97,1.38,0,2.62-.61,3.5-1.56l35.03,20.84c-.31.83-.5,1.73-.5,2.68,0,4.11,3.24,7.45,7.23,7.45,1.27,0,2.45-.37,3.49-.96l34.55,20.55c.06,4.06,3.26,7.34,7.22,7.34s7.16-3.27,7.22-7.33l34.55-20.55c1.04.6,2.22.96,3.49.96,3.99,0,7.23-3.34,7.23-7.45,0-.95-.19-1.85-.5-2.68l35.03-20.84c.88.96,2.12,1.56,3.5,1.56,2.66,0,4.82-2.22,4.82-4.97,0-2.34-1.57-4.28-3.68-4.81ZM9.42,113.71l35.06-20.85c1.33,1.69,3.33,2.79,5.6,2.79,1.27,0,2.45-.37,3.49-.96l34.35,20.43-34.35,20.43c-1.04-.6-2.22-.96-3.49-.96-2.27,0-4.28,1.1-5.6,2.79l-35.06-20.85c.13-.45.22-.92.22-1.41s-.09-.96-.22-1.41ZM133.37,195.76l-34.55,20.55c-1.04-.6-2.22-.96-3.49-.96s-2.45.37-3.49.96l-34.55-20.55c-.01-.9-.19-1.76-.49-2.56l38.53-22.92,38.53,22.92c-.3.8-.48,1.66-.49,2.56ZM91.84,13.93c1.04.6,2.22.96,3.49.96s2.45-.37,3.49-.96l34.55,20.55c.01.9.19,1.76.49,2.56l-35.93,21.37-40.44-24.05,34.35-20.43ZM133.18,88.2l-34.35,20.43c-.72-.41-1.51-.71-2.35-.85v-41.42l36.71,21.83ZM53.87,148.36c2.03-1.29,3.39-3.57,3.43-6.2l34.55-20.55c.72.41,1.51.71,2.35.85v45.86l-38.52,22.91c-.51-.65-1.12-1.22-1.81-1.66v-41.2ZM100.15,59.74l34.83-20.72c1.1,1.4,2.66,2.38,4.47,2.67v39.18c-.85.14-1.63.43-2.35.84l-36.95-21.98ZM94.2,65.02v42.77c-.85.14-1.63.43-2.35.85l-34.55-20.55c-.06-3.66-2.67-6.66-6.08-7.21v-39.18c.85-.14,1.63-.43,2.35-.84l40.63,24.17ZM134.99,191.22l-38.52-22.91v-45.86c.85-.14,1.63-.43,2.35-.85l34.55,20.55c.06,3.66,2.67,6.66,6.08,7.21v39.18c-1.8.29-3.37,1.27-4.47,2.67ZM140.59,134.59c-1.27,0-2.45.37-3.49.96l-34.35-20.43,34.35-20.43c1.04.6,2.22.96,3.49.96,2.27,0,4.28-1.1,5.6-2.79l35.06,20.85c-.13.45-.22.92-.22,1.41s.09.96.22,1.41l-35.06,20.85c-1.33-1.69-3.33-2.79-5.6-2.79ZM181.25,59.87c-.13.45-.22.92-.22,1.41,0,2.34,1.57,4.28,3.68,4.81v44.21c-.92.23-1.73.73-2.36,1.41l-35.03-20.84c.3-.8.48-1.66.49-2.56l.2-.12-.2-.12c-.06-3.66-2.67-6.65-6.08-7.21v-39.18c1.8-.3,3.37-1.27,4.46-2.68l35.06,20.85ZM44.47,39.02c1.1,1.4,2.66,2.38,4.47,2.67v39.18c-3.45.56-6.09,3.62-6.09,7.33,0,.95.19,1.84.5,2.68l-35.03,20.84c-.63-.69-1.44-1.18-2.36-1.41v-44.21c2.11-.53,3.68-2.48,3.68-4.81,0-.49-.09-.96-.22-1.41l35.06-20.85ZM9.42,170.37c.13-.45.22-.92.22-1.41,0-2.34-1.57-4.28-3.68-4.81v-44.21c.92-.23,1.73-.73,2.36-1.41l35.03,20.84c-.31.83-.5,1.73-.5,2.68,0,2.68,1.38,5.01,3.44,6.32v41.2c-.7.44-1.3,1.01-1.81,1.66l-35.06-20.85ZM146.19,191.22c-1.1-1.4-2.66-2.38-4.46-2.67v-39.18c3.45-.57,6.09-3.62,6.09-7.33,0-.95-.19-1.85-.5-2.68l35.03-20.84c.63.68,1.44,1.18,2.36,1.41v44.21c-2.11.53-3.68,2.48-3.68,4.81,0,.49.09.96.22,1.41l-35.06,20.85Z"/>
</svg>