<?xml version="1.0" encoding="UTF-8"?>
<svg id="Layer_1" xmlns="http://www.w3.org/2000/svg" version="1.1" viewBox="0 0 763.38 230.25">
  <!-- Generator: Adobe Illustrator 29.1.0, SVG Export Plug-In . SVG Version: 2.1.0 Build 142)  -->
  <defs>
    <style>
      .st0 {
        fill: #fa0;
      }
    </style>
  </defs>
  <g>
    <path d="M261.41,40.71c-6.03,0-10.82,3.11-10.82,8.79s7.18,8.25,13,10.29c10.71,3.75,22.78,8.68,22.78,23.79,0,16.5-14.56,23.25-26.63,23.25-11.03,0-19.35-3.97-27.26-12l8.74-8.68c6.34,6.32,11.13,9.22,18.62,9.22,6.45,0,12.9-3.21,12.9-11.04,0-7.18-7.39-9.86-14.98-12.64-9.78-3.64-20.08-8.57-20.08-21.54,0-14.25,11.03-20.9,22.99-20.9,9.05,0,16.44,2.89,23.51,8.36l-7.59,9.53c-3.75-3.43-9.57-6.43-15.19-6.43Z"/>
    <path d="M342.34,87.97h.21l9.57-37.5h12.9l-15.5,55.08h-13.21l-9.67-36.11h-.21l-9.88,36.11h-13.73l-14.77-55.08h13.52l8.74,37.61h.21l10.3-37.61h11.86l9.67,37.5Z"/>
    <path d="M402.98,105.54l-.62-5.14c-3.85,4.72-9.05,6.43-15.19,6.43-9.98,0-19.24-5.68-19.24-17.25,0-13.72,12.28-18,23.61-18,2.81,0,6.14.32,10.09,1.18v-1.29c0-7.5-3.22-12-11.44-12-6.03,0-11.96,2.36-16.54,4.82l-3.43-9.75c6.34-3.21,14.56-5.47,22.26-5.47,15.19,0,21.74,8.79,21.74,23.14v33.33h-11.23ZM401.63,81.11c-3.22-.75-5.82-1.07-8.22-1.07-5.93,0-13.11,1.93-13.11,9.11,0,5.57,4.27,8.04,9.15,8.04s8.53-2.25,12.17-5.46v-10.61Z"/>
    <path d="M438.86,58.18c3.23-5.36,7.49-9.11,13-9.11,2.49,0,4.47.32,6.45.96l-2.81,12.11c-1.56-.86-3.12-1.18-5.1-1.18-4.58,0-8.43,2.68-11.03,7.39v37.18h-12.69v-55.19h11.55l.62,7.82Z"/>
    <path d="M530.71,105.54v-27.75c0-4.61,0-9.75-1.87-13.18-1.56-2.79-4.27-4.18-8.01-4.18-4.37,0-9.05,2.89-12.28,7.5.42,2.68.52,5.79.52,8.89v28.72h-12.59v-27.75c0-4.61,0-10.07-2.08-13.5-1.46-2.57-4.06-3.86-7.49-3.86-4.26,0-9.05,3.43-12.07,7.39v37.72h-12.59v-55.19h11.55l.52,7.4c4.16-5.79,10.4-8.68,16.02-8.68s11.03,2.57,14.46,7.5c.42.64.73,1.29,1.14,2.14,4.89-7.18,11.76-9.64,18.2-9.64s11.13,2.57,14.36,6.86c4.06,5.36,4.89,12.75,4.89,20.9v28.72h-12.69Z"/>
    <path d="M272.86,189.32c5.62,0,11.03-2.04,15.71-5.79l7.18,9.64c-6.87,5.03-14.77,7.82-23.2,7.82-21.84,0-38.59-15.54-38.59-38.79s17.37-38.79,38.9-38.79c7.8,0,14.67,2.46,21.22,6.64l-6.14,10.29c-4.37-3.21-9.57-5.25-15.08-5.25-14.56,0-25.28,11.68-25.28,27.11,0,16.4,9.99,27.11,25.28,27.11Z"/>
    <path d="M353.68,172.06c0,16.18-11.76,28.93-27.77,28.93s-27.77-12.75-27.77-28.93,11.76-28.82,27.77-28.82,27.77,12.75,27.77,28.82ZM325.9,154.6c-8.74,0-14.98,7.82-14.98,17.47s6.24,17.57,14.98,17.57,14.98-7.82,14.98-17.57-6.24-17.47-14.98-17.47Z"/>
    <path d="M374.16,144.53l.63,8.14c4.26-6.32,10.61-9.43,17.06-9.43s11.44,2.68,14.77,7.07c3.95,5.36,4.79,12.64,4.79,20.68v28.72h-12.59v-27.75c0-4.61-.11-9.75-2.08-13.18-1.56-2.79-4.27-4.18-8.11-4.18-5,0-10.19,3.32-13.31,8.47v36.65h-12.59v-55.19h11.44Z"/>
    <path d="M435.32,144.53l.63,8.14c4.26-6.32,10.61-9.43,17.06-9.43s11.44,2.68,14.77,7.07c3.95,5.36,4.79,12.64,4.79,20.68v28.72h-12.59v-27.75c0-4.61-.11-9.75-2.08-13.18-1.56-2.79-4.27-4.18-8.11-4.18-5,0-10.19,3.32-13.31,8.47v36.65h-12.59v-55.19h11.44Z"/>
    <path d="M493.78,175.39c.83,8.25,6.24,15,14.98,15,6.97,0,11.44-2.79,14.77-8.57l8.53,5.89c-5.93,9-12.9,13.29-24.03,13.29-16.54,0-26.94-12.11-26.94-28.5s11.76-29.25,26.94-29.25,25.28,10.82,25.28,25.61c0,2.04-.21,4.5-.52,6.54h-39.01ZM508.34,153.64c-7.7,0-12.17,5.36-13.83,12.43h25.9c-.31-7.18-5.41-12.43-12.07-12.43Z"/>
    <path d="M583.75,194.78c-4.68,4.18-10.92,6.21-18.1,6.21-15.6,0-27.25-11.68-27.25-28.93,0-16.07,11.65-28.82,27.77-28.82,6.55,0,12.48,2.14,17.26,5.89l-6.24,9.64c-3.01-2.68-6.66-4.18-10.61-4.18-8.74,0-15.39,7.82-15.39,17.47,0,10.29,6.97,17.57,15.29,17.57,3.85,0,7.7-1.39,10.71-4.07l6.55,9.22Z"/>
    <path d="M606.42,155.46v22.83c0,1.61,0,2.89.1,4.61.42,4.29,1.87,6.75,5.82,6.75,2.29,0,4.16-.53,5.93-1.5l3.74,9.86c-3.12,1.82-7.7,2.89-11.65,2.89-8.01,0-13.21-4.18-15.29-10.5-1.04-2.89-1.35-6.54-1.35-10.18v-24.75h-6.66v-10.93h6.66l1.35-12.64h11.34v12.64h14.15v10.93h-14.15Z"/>
    <path d="M628.47,135.53v-12.11h12.59v12.11h-12.59ZM628.47,199.71v-55.19h12.59v55.19h-12.59Z"/>
    <path d="M705.65,172.06c0,16.18-11.75,28.93-27.77,28.93s-27.77-12.75-27.77-28.93,11.75-28.82,27.77-28.82,27.77,12.75,27.77,28.82ZM677.88,154.6c-8.74,0-14.98,7.82-14.98,17.47s6.24,17.57,14.98,17.57,14.98-7.82,14.98-17.57-6.24-17.47-14.98-17.47Z"/>
    <path d="M726.14,144.53l.62,8.14c4.27-6.32,10.61-9.43,17.06-9.43s11.44,2.68,14.77,7.07c3.95,5.36,4.79,12.64,4.79,20.68v28.72h-12.59v-27.75c0-4.61-.1-9.75-2.08-13.18-1.56-2.79-4.26-4.18-8.11-4.18-4.99,0-10.19,3.32-13.31,8.47v36.65h-12.59v-55.19h11.44Z"/>
  </g>
  <path class="st0" d="M186.98,164.15v-44.21c2.11-.53,3.68-2.48,3.68-4.81s-1.57-4.28-3.68-4.81v-44.21c2.11-.53,3.68-2.48,3.68-4.81,0-2.74-2.16-4.97-4.82-4.97-1.38,0-2.62.61-3.5,1.56l-35.03-20.84c.31-.83.5-1.73.5-2.68,0-4.11-3.24-7.45-7.23-7.45-1.27,0-2.45.37-3.49.96L102.55,7.33c-.06-4.06-3.26-7.33-7.22-7.33s-7.16,3.27-7.22,7.33l-34.55,20.55c-1.04-.6-2.22-.96-3.49-.96-3.95,0-7.16,3.27-7.22,7.33l-.19.12.19.12c.01.9.19,1.76.49,2.56L8.32,57.88c-.88-.96-2.12-1.56-3.5-1.56-2.66,0-4.82,2.22-4.82,4.97,0,2.34,1.57,4.28,3.68,4.81v44.21c-2.11.53-3.68,2.48-3.68,4.81s1.57,4.28,3.68,4.81v44.21c-2.11.53-3.68,2.48-3.68,4.81,0,2.74,2.16,4.97,4.82,4.97,1.38,0,2.62-.61,3.5-1.56l35.03,20.84c-.31.83-.5,1.73-.5,2.68,0,4.11,3.24,7.45,7.23,7.45,1.27,0,2.45-.37,3.49-.96l34.55,20.55c.06,4.06,3.26,7.34,7.22,7.34s7.16-3.27,7.22-7.33l34.55-20.55c1.04.6,2.22.96,3.49.96,3.99,0,7.23-3.34,7.23-7.45,0-.95-.19-1.85-.5-2.68l35.03-20.84c.88.96,2.12,1.56,3.5,1.56,2.66,0,4.82-2.22,4.82-4.97,0-2.34-1.57-4.28-3.68-4.81ZM9.42,113.71l35.06-20.85c1.33,1.69,3.33,2.79,5.6,2.79,1.27,0,2.45-.37,3.49-.96l34.35,20.43-34.35,20.43c-1.04-.6-2.22-.96-3.49-.96-2.27,0-4.28,1.1-5.6,2.79l-35.06-20.85c.13-.45.22-.92.22-1.41s-.09-.96-.22-1.41ZM133.37,195.76l-34.55,20.55c-1.04-.6-2.22-.96-3.49-.96s-2.45.37-3.49.96l-34.55-20.55c-.01-.9-.19-1.76-.49-2.56l38.53-22.92,38.53,22.92c-.3.8-.48,1.66-.49,2.56ZM91.84,13.93c1.04.6,2.22.96,3.49.96s2.45-.37,3.49-.96l34.55,20.55c.01.9.19,1.76.49,2.56l-35.93,21.37-40.44-24.05,34.35-20.43ZM133.18,88.2l-34.35,20.43c-.72-.41-1.51-.71-2.35-.85v-41.42l36.71,21.83ZM53.87,148.36c2.03-1.29,3.39-3.57,3.43-6.2l34.55-20.55c.72.41,1.51.71,2.35.85v45.86l-38.52,22.91c-.51-.65-1.12-1.22-1.81-1.66v-41.2ZM100.15,59.74l34.83-20.72c1.1,1.4,2.66,2.38,4.47,2.67v39.18c-.85.14-1.63.43-2.35.84l-36.95-21.98ZM94.2,65.02v42.77c-.85.14-1.63.43-2.35.85l-34.55-20.55c-.06-3.66-2.67-6.66-6.08-7.21v-39.18c.85-.14,1.63-.43,2.35-.84l40.63,24.17ZM134.99,191.22l-38.52-22.91v-45.86c.85-.14,1.63-.43,2.35-.85l34.55,20.55c.06,3.66,2.67,6.66,6.08,7.21v39.18c-1.8.29-3.37,1.27-4.47,2.67ZM140.59,134.59c-1.27,0-2.45.37-3.49.96l-34.35-20.43,34.35-20.43c1.04.6,2.22.96,3.49.96,2.27,0,4.28-1.1,5.6-2.79l35.06,20.85c-.13.45-.22.92-.22,1.41s.09.96.22,1.41l-35.06,20.85c-1.33-1.69-3.33-2.79-5.6-2.79ZM181.25,59.87c-.13.45-.22.92-.22,1.41,0,2.34,1.57,4.28,3.68,4.81v44.21c-.92.23-1.73.73-2.36,1.41l-35.03-20.84c.3-.8.48-1.66.49-2.56l.2-.12-.2-.12c-.06-3.66-2.67-6.65-6.08-7.21v-39.18c1.8-.3,3.37-1.27,4.46-2.68l35.06,20.85ZM44.47,39.02c1.1,1.4,2.66,2.38,4.47,2.67v39.18c-3.45.56-6.09,3.62-6.09,7.33,0,.95.19,1.84.5,2.68l-35.03,20.84c-.63-.69-1.44-1.18-2.36-1.41v-44.21c2.11-.53,3.68-2.48,3.68-4.81,0-.49-.09-.96-.22-1.41l35.06-20.85ZM9.42,170.37c.13-.45.22-.92.22-1.41,0-2.34-1.57-4.28-3.68-4.81v-44.21c.92-.23,1.73-.73,2.36-1.41l35.03,20.84c-.31.83-.5,1.73-.5,2.68,0,2.68,1.38,5.01,3.44,6.32v41.2c-.7.44-1.3,1.01-1.81,1.66l-35.06-20.85ZM146.19,191.22c-1.1-1.4-2.66-2.38-4.46-2.67v-39.18c3.45-.57,6.09-3.62,6.09-7.33,0-.95-.19-1.85-.5-2.68l35.03-20.84c.63.68,1.44,1.18,2.36,1.41v44.21c-2.11.53-3.68,2.48-3.68,4.81,0,.49.09.96.22,1.41l-35.06,20.85Z"/>
</svg>