<?xml version="1.0" encoding="UTF-8"?>
<svg id="Layer_1" xmlns="http://www.w3.org/2000/svg" version="1.1" viewBox="0 0 427.22 138.21">
  <!-- Generator: Adobe Illustrator 29.1.0, SVG Export Plug-In . SVG Version: 2.1.0 Build 142)  -->
  <path d="M23.27,9.23c-4.85,0-8.71,2.5-8.71,7.07s5.78,6.64,10.46,8.28c8.62,3.02,18.33,6.98,18.33,19.14,0,13.28-11.72,18.71-21.43,18.71-8.87,0-15.57-3.19-21.93-9.66l7.03-6.98c5.11,5.09,8.96,7.42,14.98,7.42,5.19,0,10.38-2.59,10.38-8.88,0-5.78-5.94-7.93-12.05-10.17-7.87-2.93-16.16-6.9-16.16-17.33C4.19,5.35,13.06,0,22.68,0c7.28,0,13.23,2.33,18.92,6.73l-6.11,7.67c-3.01-2.76-7.7-5.17-12.22-5.17Z"/>
  <path d="M88.39,47.25h.17l7.7-30.18h10.38l-12.47,44.32h-10.63l-7.78-29.06h-.17l-7.95,29.06h-11.05l-11.89-44.32h10.88l7.03,30.27h.17l8.29-30.27h9.54l7.78,30.18Z"/>
  <path d="M137.19,61.39l-.5-4.14c-3.1,3.79-7.28,5.17-12.22,5.17-8.04,0-15.49-4.57-15.49-13.88,0-11.04,9.88-14.49,19-14.49,2.26,0,4.94.26,8.12.95v-1.03c0-6.04-2.59-9.66-9.21-9.66-4.86,0-9.63,1.9-13.31,3.88l-2.76-7.85c5.11-2.59,11.72-4.4,17.91-4.4,12.22,0,17.49,7.07,17.49,18.62v26.82h-9.04ZM136.1,41.73c-2.59-.6-4.69-.86-6.61-.86-4.77,0-10.55,1.55-10.55,7.33,0,4.48,3.43,6.47,7.37,6.47s6.86-1.81,9.79-4.4v-8.54Z"/>
  <path d="M166.07,23.28c2.59-4.31,6.03-7.33,10.46-7.33,2.01,0,3.6.26,5.19.78l-2.26,9.74c-1.26-.69-2.51-.95-4.1-.95-3.68,0-6.78,2.16-8.87,5.95v29.92h-10.21V16.99h9.29l.5,6.29Z"/>
  <path d="M239.98,61.39v-22.33c0-3.71,0-7.85-1.51-10.61-1.26-2.24-3.43-3.36-6.45-3.36-3.52,0-7.28,2.33-9.88,6.04.33,2.16.42,4.66.42,7.16v23.11h-10.13v-22.33c0-3.71,0-8.11-1.67-10.86-1.17-2.07-3.26-3.1-6.03-3.1-3.43,0-7.28,2.76-9.71,5.95v30.35h-10.13V16.99h9.29l.42,5.95c3.35-4.66,8.37-6.98,12.89-6.98s8.87,2.07,11.64,6.04c.34.52.59,1.03.92,1.72,3.93-5.78,9.46-7.76,14.65-7.76s8.96,2.07,11.55,5.52c3.26,4.31,3.93,10.26,3.93,16.81v23.11h-10.21Z"/>
  <path d="M32.48,128.81c4.52,0,8.87-1.64,12.64-4.66l5.78,7.76c-5.52,4.05-11.89,6.3-18.67,6.3-17.58,0-31.05-12.5-31.05-31.21s13.98-31.21,31.31-31.21c6.28,0,11.8,1.98,17.08,5.35l-4.94,8.28c-3.52-2.59-7.7-4.22-12.14-4.22-11.72,0-20.34,9.4-20.34,21.82,0,13.19,8.04,21.82,20.34,21.82Z"/>
  <path d="M97.52,114.93c0,13.02-9.46,23.28-22.35,23.28s-22.35-10.26-22.35-23.28,9.46-23.2,22.35-23.2,22.35,10.26,22.35,23.2ZM75.17,100.87c-7.03,0-12.05,6.29-12.05,14.05s5.02,14.14,12.05,14.14,12.05-6.3,12.05-14.14-5.02-14.05-12.05-14.05Z"/>
  <path d="M114,92.77l.5,6.55c3.43-5.09,8.54-7.59,13.73-7.59s9.21,2.16,11.89,5.69c3.18,4.31,3.85,10.17,3.85,16.64v23.11h-10.13v-22.33c0-3.71-.08-7.85-1.67-10.61-1.26-2.24-3.43-3.36-6.53-3.36-4.02,0-8.2,2.67-10.71,6.81v29.49h-10.13v-44.41h9.21Z"/>
  <path d="M163.22,92.77l.5,6.55c3.43-5.09,8.54-7.59,13.73-7.59s9.21,2.16,11.89,5.69c3.18,4.31,3.85,10.17,3.85,16.64v23.11h-10.13v-22.33c0-3.71-.08-7.85-1.67-10.61-1.26-2.24-3.43-3.36-6.53-3.36-4.02,0-8.2,2.67-10.71,6.81v29.49h-10.13v-44.41h9.21Z"/>
  <path d="M210.26,117.6c.67,6.64,5.02,12.07,12.05,12.07,5.61,0,9.21-2.24,11.89-6.9l6.86,4.74c-4.77,7.24-10.38,10.69-19.34,10.69-13.31,0-21.68-9.74-21.68-22.94s9.46-23.54,21.68-23.54,20.34,8.71,20.34,20.61c0,1.64-.17,3.62-.42,5.26h-31.39ZM221.98,100.1c-6.19,0-9.79,4.31-11.13,10h20.84c-.25-5.78-4.35-10-9.71-10Z"/>
  <path d="M282.67,133.21c-3.77,3.36-8.79,5-14.56,5-12.56,0-21.93-9.4-21.93-23.28,0-12.93,9.38-23.2,22.35-23.2,5.27,0,10.05,1.73,13.9,4.74l-5.02,7.76c-2.43-2.16-5.36-3.36-8.54-3.36-7.03,0-12.39,6.29-12.39,14.05,0,8.28,5.61,14.14,12.3,14.14,3.1,0,6.19-1.12,8.62-3.28l5.27,7.42Z"/>
  <path d="M300.91,101.56v18.37c0,1.29,0,2.33.08,3.71.34,3.45,1.51,5.43,4.69,5.43,1.84,0,3.35-.43,4.77-1.21l3.01,7.93c-2.51,1.47-6.19,2.33-9.38,2.33-6.45,0-10.63-3.36-12.3-8.45-.84-2.33-1.09-5.26-1.09-8.19v-19.92h-5.36v-8.79h5.36l1.09-10.17h9.12v10.17h11.38v8.79h-11.38Z"/>
  <path d="M318.66,85.53v-9.74h10.13v9.74h-10.13ZM318.66,137.18v-44.41h10.13v44.41h-10.13Z"/>
  <path d="M380.77,114.93c0,13.02-9.46,23.28-22.35,23.28s-22.35-10.26-22.35-23.28,9.46-23.2,22.35-23.2,22.35,10.26,22.35,23.2ZM358.42,100.87c-7.03,0-12.05,6.29-12.05,14.05s5.02,14.14,12.05,14.14,12.05-6.3,12.05-14.14-5.02-14.05-12.05-14.05Z"/>
  <path d="M397.26,92.77l.5,6.55c3.43-5.09,8.54-7.59,13.73-7.59s9.21,2.16,11.89,5.69c3.18,4.31,3.85,10.17,3.85,16.64v23.11h-10.13v-22.33c0-3.71-.08-7.85-1.67-10.61-1.26-2.24-3.43-3.36-6.53-3.36-4.02,0-8.2,2.67-10.71,6.81v29.49h-10.13v-44.41h9.21Z"/>
</svg>